<?xml version="1.0" standalone="no"?>
<!DOCTYPE svg PUBLIC "-//W3C//DTD SVG 1.1//EN" "http://www.w3.org/Graphics/SVG/1.1/DTD/svg11.dtd" >
<!--
2016-6-22: Created.
-->
<svg xmlns="http://www.w3.org/2000/svg">
<metadata>
Created by FontForge 20120731 at Wed Jun 22 15:07:53 2016
 By root
Created by root with FontForge 2.0 (http://fontforge.sf.net)
</metadata>
<defs>
<font id="Flaticon" horiz-adv-x="512" >
  <font-face 
    font-family="Flaticon"
    font-weight="500"
    font-stretch="normal"
    units-per-em="512"
    panose-1="2 0 6 3 0 0 0 0 0 0"
    ascent="448"
    descent="-64"
    bbox="-0.00115395 -64.0088 512.01 448.005"
    underline-thickness="25.6"
    underline-position="-51.2"
    unicode-range="U+0020-F123"
  />
    <missing-glyph />
    <glyph glyph-name="space" unicode=" " horiz-adv-x="200" 
 />
    <glyph glyph-name="uniF10E" unicode="&#xf10e;" 
d="M270.985 440.407c1.36426 -2.15039 144.872 -229.271 144.493 -336.743c-0.292969 -92.4424 -71.7646 -167.664 -159.307 -167.664h-0.171875c-88.0068 0 -159.479 75.4434 -159.479 168.164c0 107.193 143.3 331.779 144.735 334.021
c1.85742 2.90039 6.25781 9.81445 14.25 9.81445l1.90039 -0.135742c7.25 0 11.5068 -4.06445 13.5781 -7.45703zM256.179 -46.4141c77.8926 0 141.472 67.3574 141.735 150.143c0.292969 84.4141 -101 262.85 -141.078 326.172
c-0.22168 -0.314453 -0.493164 -0.72168 -0.799805 -1.22852c-1.45801 -2.24316 -141.965 -224.036 -141.965 -324.508c0 -83.0215 63.5928 -150.578 141.757 -150.578h0.350586zM253.922 339.614c4.26367 -2.32129 5.83496 -7.66406 3.5 -11.9287
c-53.5938 -98.2998 -81.915 -173.192 -81.915 -216.607c0 -21.7852 4.65723 -42.3779 13.7861 -61.1992c2.12891 -4.37207 0.314453 -9.62891 -4.04297 -11.7578c-1.23535 -0.599609 -2.52832 -0.885742 -3.83594 -0.885742c-3.25 0 -6.37793 1.80762 -7.88574 4.93652
c-10.3428 21.2354 -15.5713 44.4141 -15.5713 68.8994c0 58.5498 45.7217 154.7 84.0713 225.043c2.3291 4.24316 7.62891 5.8291 11.8936 3.5z" />
    <glyph glyph-name="uniF104" unicode="&#xf104;" 
d="M280.872 401.348c127.445 0 231.128 -103.87 231.128 -231.522c0 -127.643 -103.673 -231.513 -231.128 -231.513c-127.445 0 -231.127 103.87 -231.127 231.513c0 127.662 103.682 231.522 231.127 231.522zM280.872 -38.3193
c114.577 0 207.797 93.3701 207.797 208.154c0 114.774 -93.2197 208.153 -207.797 208.153c-114.576 0 -207.796 -93.3887 -207.796 -208.153c0 -114.774 93.2197 -208.154 207.796 -208.154zM408.299 158.62c6.37305 0 11.543 -5.16992 11.543 -11.5801
c0 -6.37402 -5.16016 -11.5527 -11.5518 -11.5527h-127.069c-6.38281 0 -11.5527 5.16016 -11.5527 11.5527v150.409c0 6.39258 5.16992 11.5713 11.5527 11.5713c6.3916 0 11.5518 -5.16992 11.5518 -11.5713v-138.829h115.526zM147.608 423.673
c-57.8857 -27.7588 -101.182 -76.7979 -125.227 -141.8c-1.71094 -4.65234 -6.13867 -7.54785 -10.8291 -7.54785c-1.33496 0 -2.67871 0.21582 -4.01367 0.714844c-5.97852 2.21777 -9.02441 8.88281 -6.82422 14.8701c26.1689 70.7451 73.5264 124.222 136.92 154.64
c5.73438 2.7832 12.6338 0.338867 15.4072 -5.44238c2.75391 -5.77148 0.30957 -12.6807 -5.43359 -15.4346z" />
    <glyph glyph-name="uniF121" unicode="&#xf121;" 
d="M398.604 120.42c42.9678 -42.7441 106.287 -106.484 113.341 -168.805c0.30957 -2.77637 -0.579102 -5.53027 -2.42773 -7.60156c-1.83301 -2.08594 -4.4834 -3.26074 -7.27637 -3.26074h-492.496c-2.77734 0 -5.45117 1.19043 -7.29199 3.29297
c-1.84863 2.08691 -2.72168 4.87207 -2.38086 7.6416c5.72949 47.6953 44.0781 105.246 117.205 175.914c46.5137 141.691 119.521 295.88 133.844 312.439c3.68945 4.27734 11.0449 4.27734 14.7354 0c14.8135 -17.1152 87.8057 -175.033 132.748 -319.621z
M21.376 -39.7119h469.287c-12.3223 53.2744 -69.1035 109.786 -107.516 148c-1.12695 1.12695 -1.95996 2.51562 -2.44434 4.03906c-39.7217 128.512 -99.709 261.896 -122.235 303.037c-22.4473 -40.4756 -82.3867 -170.479 -123.401 -296.15
c-0.492188 -1.53125 -1.36523 -2.89551 -2.51562 -4.01465c-64.1133 -61.6455 -101.438 -113.682 -111.175 -154.911zM258.103 134.568c35.3818 0 64.1611 -28.835 64.1611 -64.2725c0 -35.4287 -28.7793 -64.2715 -64.1611 -64.2715
c-35.3809 0 -64.1768 28.8428 -64.1768 64.2715c0 35.4375 28.7959 64.2725 64.1768 64.2725zM258.103 25.5596c24.6299 0 44.6572 20.0674 44.6572 44.7363c0 24.6699 -20.0273 44.7363 -44.6572 44.7363c-24.6455 0 -44.6729 -20.0742 -44.6729 -44.7363
c0 -24.6768 20.0352 -44.7363 44.6729 -44.7363zM258.103 164.165c-25.248 0 -45.791 20.583 -45.791 45.8789c0 25.2881 20.543 45.8711 45.791 45.8711c25.249 0 45.7998 -20.5752 45.7998 -45.8711s-20.543 -45.8789 -45.7998 -45.8789zM258.103 236.387
c-14.4883 0 -26.2959 -11.8223 -26.2959 -26.335c0 -14.5283 11.8076 -26.3438 26.2959 -26.3438c14.4971 0 26.2959 11.8154 26.2959 26.3438c0 14.5205 -11.7988 26.335 -26.2959 26.335z" />
    <glyph glyph-name="uniF11C" unicode="&#xf11c;" 
d="M511.333 164.816c-0.4375 -1.05566 -1.06934 -2 -1.84668 -2.79883l-79.9922 -80.1309c-4.90918 -14.5762 -14.2637 -27.458 -27.166 -36.4785l-141.45 -98.7422c-1.46484 -1.02051 -3.18652 -1.54785 -4.88184 -1.54785c-1.70117 0 -3.41602 0.53418 -4.88184 1.54785
l-141.449 98.7422c-12.9512 9.04199 -22.3193 22.0068 -27.2012 36.6455l-79.582 79.7139c-1.74316 1.55566 -2.88184 3.78516 -2.88184 6.30566v102.568c0 4.73535 3.81934 8.55469 8.53418 8.5625h70.083v151.13c0 4.72168 3.81934 8.54785 8.53418 8.54785h337.69
c4.71484 0 8.53418 -3.81934 8.53418 -8.54785v-151.145h70.0898c4.72168 0 8.53418 -3.81934 8.53418 -8.54785v-102.548c0 -1.11035 -0.236328 -2.22852 -0.666992 -3.27734zM433.376 159.531v-49.5684l49.4785 49.5684h-49.4785zM95.6797 421.785v-142.581h320.627
v142.581h-320.627zM17.0693 262.1v-85.4844h477.854v85.4844h-477.854zM78.6172 159.531h-49.3604l49.3604 -49.4502v49.4502zM392.558 59.4355c14.8672 10.3887 23.749 27.4375 23.749 45.583v54.5127h-320.627v-54.5127c0 -18.1592 8.88184 -35.1943 23.749 -45.583
l136.567 -95.3389z" />
    <glyph glyph-name="uniF117" unicode="&#xf117;" 
d="M418.909 159.356c5.14355 0 9.29492 -4.15918 9.31836 -9.31055v-118.402c0 -37.5371 -30.5 -68.0908 -67.9932 -68.0908h-292.25c-37.5 0 -67.9844 30.5537 -67.9844 68.0908v236.788c0 37.5459 30.4844 68.0908 67.9844 68.084h174.054
c5.14355 0 9.31055 -4.16699 9.31055 -9.31836s-4.15918 -9.31836 -9.31055 -9.31836h-174.054c-27.2188 0 -49.3633 -22.1816 -49.3633 -49.4473v-236.788c0 -27.25 22.1445 -49.4463 49.3633 -49.4463h292.25c27.2275 0 49.3643 22.1816 49.3643 49.4463v118.402
c0 5.14355 4.15918 9.31055 9.31055 9.31055zM400 420.447c61.7578 0 112 -50.3184 112 -112.175c0 -61.8555 -50.2422 -112.182 -112 -112.182c-15.583 0 -30.4238 3.21973 -43.917 9.00781l-114.265 -114.462c-1.7959 -1.80371 -4.18164 -2.71973 -6.58398 -2.71973
c-2.02246 0 -4.05273 0.651367 -5.74219 2c-3.71191 2.89355 -4.65137 8.13574 -2.2041 12.1592l83.9092 138.144c-14.4775 18.8936 -23.167 42.4395 -23.167 68.0459c0 61.8555 50.2354 112.182 111.97 112.182zM283.508 158.772l55.4619 55.5605
c-5.23535 3.43262 -10.1289 7.31055 -14.7119 11.5537zM400 214.742c51.5 0 93.3789 41.9551 93.3789 93.5234c0 51.5674 -41.8789 93.5303 -93.3789 93.5303c-51.4775 0 -93.3564 -41.9551 -93.3564 -93.5234s41.8789 -93.5303 93.3564 -93.5303zM452.341 354.978
c11.4551 -12.8643 17.7725 -29.4473 17.7725 -46.6895c0 -38.7197 -31.4541 -70.2197 -70.1133 -70.2197c-5.14355 0 -9.31055 4.16602 -9.31055 9.3252c0 5.13672 4.15918 9.31055 9.31055 9.31055c28.4014 0 51.5 23.1289 51.5 51.5684
c0 12.6748 -4.65137 24.8486 -13.0459 34.2881c-3.41602 3.85645 -3.09082 9.75 0.75 13.167c3.85645 3.42383 9.75 3.06836 13.1367 -0.75z" />
    <glyph glyph-name="uniF110" unicode="&#xf110;" 
d="M256.297 403.604c140.986 0 255.695 -76.832 255.703 -171.242c0 -70.1963 -61.9268 -131.475 -158.447 -157.549v-84.7891c0 -3.61035 -2.00098 -6.91699 -5.20605 -8.57422c-1.38281 -0.703125 -2.89941 -1.05469 -4.39258 -1.05469
c-1.96973 0 -3.93945 0.59375 -5.61133 1.79785l-111.066 79.9346c-129.771 9.16016 -227.276 82.0225 -227.276 170.234c0 94.4102 114.967 171.242 256.297 171.242zM341.648 91.6025c91.8232 22.7061 151.132 77.9648 151.124 140.768
c0 83.8115 -106.072 151.999 -236.483 151.999c-130.731 0 -237.093 -68.1797 -237.093 -151.999c0 -78.5674 91.167 -143.573 212.05 -151.218c1.80566 -0.125 3.54102 -0.734375 5.01074 -1.79004l98.0918 -70.5869v73.5029c0 4.40039 3.0166 8.26855 7.2998 9.32422z" />
    <glyph glyph-name="uniF11F" unicode="&#xf11f;" 
d="M505 215.978c7.09766 -9.4502 8.88379 -22.1426 4.99902 -35.6738l-55.5605 -188.686c-7.76172 -26.9648 -36.4248 -48.1494 -65.2158 -48.1494h-98.5645c-26.5645 0 -62.1309 13.375 -80.9434 30.4502l-6.52148 5.28125
c-11.1201 10.0557 -20.6582 25.4814 -26.9844 41.8145c-5.46777 -3.56348 -11.9697 -5.69238 -18.9795 -5.69238h-122.22c-19.3115 0 -35.0098 15.7285 -35.0098 35.0488v143.464c0 19.3408 15.6982 35.0684 35.0098 35.0684h122.22
c6.22852 0 11.999 -1.77637 17.0752 -4.65723c4.67676 16.7725 11.6084 33.1357 19.5938 44.5479l98.6045 141.365c16.4014 23.4209 44.2842 35.9668 63.2725 27.9316c19.1064 -8.07422 29.748 -36.1514 24.1924 -63.9365
c-4.7832 -23.9287 -16.9092 -54.7891 -26.9941 -68.7988c-7.625 -10.5723 -14.8486 -34.9404 -14.8486 -50.1318c0 -10.5732 13.4043 -23.3623 30.0693 -23.3623h99.873c16.1084 0 29.2295 -5.64258 36.9326 -15.8838zM168.203 50.3711v0l0.00976562 143.464
c0 6.08301 -4.91992 11.0225 -10.9834 11.0225h-122.22c-6.07324 0 -11.0127 -4.93945 -11.0127 -11.0225v-143.464c0 -6.07227 4.93945 -11.0225 11.0127 -11.0225h122.21c6.06348 0 10.9834 4.9502 10.9834 11.0225zM486.958 187.03
c1.2207 4.25684 2.04102 10.2705 -1.13184 14.5176c-3.00684 4.00293 -9.46973 6.29688 -17.7686 6.29688h-99.8633c-28.8008 0 -54.0566 22.1426 -54.0566 47.3887c0 20.5703 8.67871 49.3711 19.3691 64.2002c8.13281 11.2861 18.8418 39.0615 22.9229 59.4453
c3.69043 18.501 -3.42676 34.3066 -9.97754 37.0605c-1.01562 0.428711 -2.25488 0.633789 -3.7002 0.633789c-8.18066 0 -21.3018 -6.94141 -30.6064 -20.1992l-98.6035 -141.346c-11.5693 -16.5576 -21.3418 -48.4814 -21.3418 -69.7451v-126.35
c0 -20.248 12.1836 -48.4141 26.623 -61.4863l6.51172 -5.28223c14.9375 -13.5508 44.6455 -24.6504 65.3135 -24.6504h98.5742c18.0518 0 37.3721 14.126 42.1758 30.8408z" />
    <glyph glyph-name="uniF113" unicode="&#xf113;" 
d="M256.004 448c98.3799 0 178.419 -80.165 178.401 -178.704c0 -33.4453 -9.2666 -66.0596 -26.8418 -94.3379c0.0507812 0 -6.40137 -12.2744 -114.51 -212.116c-9.38379 -17.3066 -22.582 -26.8418 -37.1924 -26.8418c-14.6182 0 -27.8252 9.52734 -37.2012 26.8418
c-114.694 212.142 -115.526 214.284 -115.837 215.115c-16.2139 26.2627 -25.2285 58.4395 -25.2285 91.3389c0 98.5391 80.0391 178.704 178.409 178.704zM389.467 184.905c16.0723 25.9258 24.3135 54.7842 24.2969 84.3906c0 87.1299 -70.7725 158.028 -157.76 158.028
c-86.9863 0 -157.759 -70.8984 -157.759 -158.02c0 -29.1025 7.96387 -57.5488 23.0273 -82.249c3.35254 -6.71289 84.5 -156.961 115.535 -214.358c11.0225 -20.3564 27.0605 -20.3564 38.083 0c38.5957 71.335 112.199 207.486 114.576 212.208zM256.004 359.392
c54.4824 0 98.791 -44.3838 98.791 -98.959c0 -54.5576 -44.3086 -98.959 -98.791 -98.959s-98.7988 44.3926 -98.7988 98.959c0 54.5752 44.3252 98.959 98.7988 98.959zM256.004 182.141c43.0986 0 78.1494 35.1348 78.1494 78.2754
c0 43.1572 -35.0586 78.2832 -78.1494 78.2832c-43.082 0 -78.1484 -35.1172 -78.1484 -78.2832c0 -43.1406 35.0664 -78.2754 78.1484 -78.2754z" />
    <glyph glyph-name="uniF11D" unicode="&#xf11d;" 
d="M334.568 235.542c3.57617 1.25 7.50879 0.495117 10.3818 -1.96191c2.88184 -2.46484 4.23633 -6.23242 3.59375 -9.95703c-2.1875 -12.665 -22.0752 -124.488 -45.5732 -152.162c-13.8887 -16.3105 -34.1406 -25.6855 -55.5732 -25.6855
c-17.3008 0 -34.0977 6.20605 -47.2832 17.4473c-14.835 12.6484 -23.8721 30.3477 -25.4346 49.792c-1.55371 19.4619 4.54883 38.3691 17.1797 53.2383c23.5244 27.6309 130.582 65.1221 142.709 69.2891zM286.712 85.3242
c13.0557 15.3467 28.5508 77.9346 37.4746 123.854c-44.7314 -16.4062 -102.909 -41.2852 -116.104 -56.7881c-8.93262 -10.5127 -13.2471 -23.8896 -12.1445 -37.665c1.09375 -13.7764 7.49219 -26.2764 17.9863 -35.2266
c20.8857 -17.8555 55.0176 -15.0693 72.7871 5.8252zM255.991 402.253c141.164 0 255.991 -116.12 256.018 -258.847c0 -55.4951 -17.8818 -111.312 -50.3564 -157.146c-1.99609 -2.85547 -5.24316 -4.52246 -8.69824 -4.52246h-393.917
c-3.45508 0 -6.70215 1.68359 -8.69824 4.52246c-32.4658 45.834 -50.3389 101.225 -50.3389 155.921c0 143.413 114.836 260.071 255.991 260.071zM447.373 3.11816c27.9512 41.3809 43.2812 90.9814 43.2812 140.288c0 130.973 -105.27 237.501 -234.663 237.501
s-234.663 -107.102 -234.663 -238.717c0 -48.5332 15.3389 -97.7002 43.29 -139.072h382.755zM255.991 340.777c99.1328 0 179.775 -81.2939 179.784 -181.234c0 -5.90234 -4.7832 -10.6855 -10.668 -10.6855c-5.89453 0 -10.6689 4.77441 -10.6689 10.6855
c0 88.1436 -71.085 159.871 -158.438 159.871c-87.3613 0 -158.438 -71.9795 -158.438 -160.452c0 -5.89453 -4.76562 -10.6777 -10.6689 -10.6777c-5.89355 0 -10.668 4.76562 -10.668 10.6777c0 100.252 80.6426 181.815 179.767 181.815z" />
    <glyph glyph-name="uniF10D" unicode="&#xf10d;" 
d="M461.324 395.007c27.9248 0 50.6582 -22.7773 50.6846 -50.7715v-304.506c0 -28.002 -22.7256 -50.7451 -50.6582 -50.7451h-410.684c-27.9336 0 -50.667 22.7432 -50.667 50.7451v304.506c0 27.9941 22.7334 50.7715 50.667 50.7715h410.657zM490.638 39.7559v0
l0.0429688 304.479c0 16.1885 -13.1846 29.3916 -29.3301 29.3916h-410.684c-16.1543 0 -29.3311 -13.2031 -29.3311 -29.3916v-304.479c0 -16.1973 13.168 -29.4004 29.3311 -29.4004h410.64c16.1543 0 29.3311 13.2119 29.3311 29.4004zM330.104 195.759l105.631 -105.822
c4.1582 -4.13184 4.1582 -10.9111 0 -15.0684c-2.0918 -2.08398 -4.82617 -3.13379 -7.54297 -3.13379s-5.45996 1.0498 -7.54297 3.13379l-105.613 105.778l-51.4922 -51.5615c-2.08301 -2.07422 -4.80859 -3.125 -7.54297 -3.125s-5.45996 1.05078 -7.54297 3.125
l-48.7578 48.8447l-102.896 -103.062c-2.08301 -2.08398 -4.80859 -3.13379 -7.54297 -3.13379s-5.45996 1.0498 -7.54297 3.13379c-4.1582 4.13184 -4.1582 10.9111 0 15.0684l102.922 103.105l-104.623 104.763c-4.1582 4.1748 -4.1582 10.9365 0 15.1123
c4.16602 4.1582 10.9189 4.1582 15.0771 0l160.898 -161.185l164.128 164.361c4.14062 4.1582 10.8936 4.1582 15.0518 0c4.16602 -4.16602 4.16602 -10.9453 0 -15.1035z" />
    <glyph glyph-name="uniF11A" unicode="&#xf11a;" 
d="M368.561 448c47.8477 0 86.7471 -38.9844 86.7471 -86.8896v-338.229c0 -47.8965 -38.8994 -86.8809 -86.7471 -86.8809h-181.327c-3.11035 0 -6.08789 1.24023 -8.28223 3.43457l-118.823 118.996c-2.19434 2.18457 -3.43555 5.19043 -3.43555 8.30078v294.379
c0 47.9053 38.9277 86.8896 86.7666 86.8896h225.102zM181.423 -29.8428v53.792c0 21.8398 -22.5645 41.0166 -48.2783 41.0166h-46.3975zM431.865 22.8809v0l0.00878906 338.229c0 34.9678 -28.4131 63.4092 -63.2949 63.4092h-225.12
c-34.9111 0 -63.3145 -28.4512 -63.3145 -63.4092v-272.645h53c38.8896 0 71.7295 -29.5586 71.7295 -64.5166v-64.4785h163.687c34.9004 0 63.3047 28.4326 63.3047 63.4102zM346.311 309.426c6.48828 0 11.7256 -5.24707 11.7354 -11.7354
c0 -6.4873 -5.23828 -11.7354 -11.7256 -11.7354h-187.586c-6.47852 0 -11.7266 5.24805 -11.7266 11.7354c0 6.48828 5.23828 11.7354 11.7266 11.7354h187.576zM346.311 238.966c6.48828 0 11.7256 -5.24805 11.7354 -11.7354
c0 -6.48828 -5.23828 -11.7354 -11.7256 -11.7354h-187.586c-6.47852 0 -11.7266 5.24707 -11.7266 11.7354c0 6.4873 5.23828 11.7354 11.7266 11.7354h187.576zM346.311 168.505c6.48828 0 11.7256 -5.25684 11.7354 -11.7256
c0 -6.48828 -5.23828 -11.7451 -11.7256 -11.7451h-187.586c-6.47852 0 -11.7266 5.23828 -11.7266 11.7451c0 6.46875 5.23828 11.7256 11.7266 11.7256h187.576z" />
    <glyph glyph-name="uniF10B" unicode="&#xf10b;" 
d="M494.846 366.374c22.3164 -22.3633 22.3164 -58.751 0.00878906 -81.1045l-113.354 -113.531c-10.7988 -10.8369 -25.1768 -16.8008 -40.4775 -16.8008c-15.3096 0 -29.6875 5.96387 -40.4863 16.8008c-4.46387 4.47266 -4.46387 11.7402 0 16.2129
c4.46289 4.47266 11.7119 4.47266 16.1846 0c12.9805 -12.999 35.5957 -12.999 48.5752 0l113.346 113.513c13.3994 13.4277 13.3994 35.2686 0 48.6777l-64.7607 64.8818c-13.3906 13.3896 -35.1855 13.3896 -48.585 0l-113.345 -113.513
c-13.3994 -13.4277 -13.3994 -35.2686 0 -48.6777c4.46387 -4.48242 4.46387 -11.7412 0 -16.2227c-4.46289 -4.47266 -11.7217 -4.47266 -16.1943 0c-22.3262 22.3535 -22.3262 58.7598 0 81.1133l113.354 113.522c22.3262 22.3447 58.6387 22.3447 80.9561 0z
M260.039 147.399c4.49121 4.49121 11.7227 4.49121 16.2139 0.0273438c22.3262 -22.3633 22.3262 -58.7686 0 -81.1133l-113.354 -113.531c-11.1719 -11.1816 -25.8203 -16.7822 -40.4873 -16.7822c-14.666 0 -29.333 5.60059 -40.4863 16.7822l-64.7607 64.8623
c-22.3262 22.3447 -22.3262 58.7695 0 81.1143l113.336 113.541c21.6084 21.6826 59.3555 21.6826 80.9551 0c4.46289 -4.47266 4.46289 -11.75 0 -16.2227c-4.46387 -4.47363 -11.7129 -4.47363 -16.1855 0c-12.9805 13.0078 -35.5947 13.0078 -48.5752 0
l-113.345 -113.532c-13.3994 -13.4365 -13.3994 -35.2773 0 -48.6768l64.7607 -64.873c13.3896 -13.3994 35.1846 -13.3994 48.584 0l113.345 113.513c13.3994 13.4277 13.3994 35.2695 0 48.6777c-4.46289 4.47266 -4.46289 11.7412 0 16.2139zM114.333 50.0723
c-4.49121 4.47266 -4.49121 11.75 0 16.2129l259.079 259.546c4.4541 4.47266 11.7129 4.47266 16.1855 0c4.46387 -4.47266 4.46387 -11.7412 0 -16.2139l-259.089 -259.545c-2.22656 -2.22754 -5.17188 -3.3457 -8.09766 -3.3457
c-2.91602 0 -5.86035 1.11816 -8.07812 3.3457z" />
    <glyph glyph-name="uniF118" unicode="&#xf118;" 
d="M478.037 235.585c28.1865 -13.4756 33.3828 -32.5635 33.9629 -42.7363c-0.515625 -9.27539 -4.86426 -29.9688 -33.9482 -43.8887l-154.154 -73.7646c-20.1201 -11.7217 -43.7334 -18.085 -67.707 -18.085c-23.0752 0 -45.875 5.86816 -65.9385 16.9814
l-156.317 74.8682c-29.0781 13.9062 -33.4189 34.5986 -33.9346 42.8496c0.56543 11.2119 5.74023 30.2998 33.9482 43.7754l156.771 74.9385c40.043 22.2051 93.2627 21.9512 133.779 -1.58398zM470.571 164.647c20.7568 9.94727 23.7471 23.0615 24.0801 28.25
c-0.431641 6.70996 -4.96289 17.8584 -24.0723 26.9854l-154.161 73.6729c-18.6357 10.7959 -39.251 16.3174 -60.2197 16.3174c-20.1201 0 -40.0215 -5.13281 -57.54 -14.8184l-157.237 -75.1582c-19.1094 -9.12695 -23.6406 -20.2754 -24.0791 -28.0381
c0.325195 -4.14258 3.30859 -17.2705 24.0791 -27.1895l156.777 -75.123c36.5859 -20.2051 82.0928 -19.5898 117.604 1.01855zM303.678 273.521c29.5938 -17.3916 47.1973 -47.5508 47.7842 -81.0186c-0.572266 -33.8994 -18.1689 -64.1289 -47.1123 -81.1318
l-12.5205 -6.18555c-0.254883 -0.0996094 -1.37109 -0.665039 -1.60449 -0.75c-10.8662 -4.19238 -22.3262 -6.30566 -34.0195 -6.30566c-12.167 0 -24.1074 2.34668 -35.4756 6.9209l-10.2861 4.94238c-30.1104 16.7686 -48.9082 48.1719 -49.502 82.1846
c0.59375 34.2383 19.3916 65.5713 49.0566 82.1074l10.2227 4.91309c23.0537 9.29004 47.7627 9.3457 70.0039 0.777344c0.310547 -0.120117 1.46973 -0.734375 1.74609 -0.882812zM296.128 126.684c23.0684 13.6084 37.4756 38.3242 37.9639 65.79
c-0.459961 27.0771 -14.8604 51.75 -38.5303 65.6914l-11.29 5.33789c-0.21875 0.0986328 -1.33594 0.699219 -1.54785 0.847656c-7.58594 2.77148 -16.9463 4.50391 -26.5254 4.50391c-10.0176 0 -19.7744 -1.8877 -28.9932 -5.5918l-9.24707 -4.43262
c-23.7822 -13.291 -39.166 -38.9189 -39.6465 -66.668c0.487305 -27.4932 15.8643 -53.1992 40.1348 -66.7441l9.2959 -4.48926c17.2148 -6.89355 38.1836 -7.19727 56.2754 -0.261719z" />
    <glyph glyph-name="uniF123" unicode="&#xf123;" 
d="M258.575 300.984c64.5459 0 117.064 -52.6055 117.056 -117.238c0 -64.6504 -52.5186 -117.265 -117.056 -117.265c-64.5381 0 -117.065 52.6143 -117.065 117.265c0 64.6328 52.5186 117.238 117.065 117.238zM258.575 87.2354
c53.126 0 96.3457 43.2969 96.3457 96.5107c0 53.1963 -43.2197 96.4932 -96.3457 96.4932c-53.127 0 -96.3545 -43.2969 -96.3545 -96.4932c0 -53.2139 43.2275 -96.5107 96.3545 -96.5107zM508.883 197.414c2.01465 -2.00586 3.13477 -4.73242 3.1084 -7.51074
c0 -39.8584 -8.49219 -77.2764 -25.2783 -112.142c-1.21582 -2.52734 -3.37793 -4.48145 -6.02637 -5.41016c-2.70898 -0.912109 -5.58398 -0.755859 -8.12793 0.459961l-21.1797 10.2559c-12.5127 -23.0557 -29.082 -43.9482 -48.6113 -61.2119l14.6406 -18.3135
c3.64746 -4.58496 2.90039 -11.2539 -1.6582 -14.9189c-29.916 -23.9668 -65.3975 -41.0996 -102.59 -49.6016c-5.71387 -1.39746 -11.3926 2.2666 -12.6689 7.98047l-5.24512 22.8906c-26.2334 -4.79395 -51.79 -4.79395 -78.0664 -0.0957031l-5.14941 -22.8818
c-0.625 -2.74414 -2.31836 -5.14062 -4.68945 -6.64258c-1.71094 -1.06836 -3.65625 -1.63281 -5.64453 -1.63281c-0.772461 0 -1.5625 0.0693359 -2.33594 0.251953c-37.2441 8.41504 -72.7607 25.5127 -102.702 49.4277
c-2.21387 1.71973 -3.62988 4.29004 -3.94238 7.08594s0.503906 5.5918 2.25781 7.80664l14.5889 18.3311c-19.5732 17.2197 -36.1768 38.0693 -48.7246 61.0811l-21.1533 -10.2725c-5.2793 -2.57031 -11.5928 -0.373047 -14.1543 4.88867
c-16.8555 34.8301 -25.4434 72.2402 -25.5303 111.213c0 2.82227 1.11133 5.51367 3.0918 7.51953c1.97949 1.98047 4.67188 3.10938 7.47656 3.10938l23.3066 0.0605469c1.2334 26.4072 7.05176 51.9111 17.3848 76.2949l-21.2139 10.1855
c-2.51855 1.20703 -4.49023 3.37793 -5.40137 6.05273c-0.929688 2.65723 -0.773438 5.55762 0.442383 8.10156c16.5254 34.4658 40.9873 65.3369 70.7725 89.2686c4.52441 3.69141 11.2109 2.94434 14.8838 -1.62305l14.667 -18.2705
c21.1104 15.3525 45.0771 26.9795 70.2773 34.0918l-5.27148 22.9248c-0.633789 2.74414 -0.147461 5.61816 1.3291 7.99805c1.50195 2.39648 3.88184 4.09863 6.6084 4.71484c36.958 8.53613 76.7988 8.69238 113.791 0.356445
c5.71387 -1.28516 9.30078 -6.95605 8.03223 -12.6699l-5.10547 -22.9248c25.1387 -6.95605 49.1758 -18.4531 70.459 -33.7363l14.5713 18.4092c1.74609 2.19727 4.29004 3.61328 7.06836 3.95117c2.75293 0.304688 5.58398 -0.486328 7.79004 -2.24023
c29.9414 -23.8018 54.6025 -54.5078 71.3193 -88.8252c1.23242 -2.52734 1.39746 -5.45312 0.486328 -8.12793c-0.912109 -2.63965 -2.83105 -4.83691 -5.3584 -6.07031l-21.1533 -10.3164c10.542 -24.4961 16.5254 -50.1484 17.8623 -76.5117l23.1855 0.286133h0.147461
c2.78711 0 5.44434 -1.10254 7.43359 -3.04785zM472.037 96.5879c11.1934 26.1895 17.4551 53.8564 18.6006 82.4863l-22.6816 -0.294922h-0.165039c-2.77832 0 -5.42676 1.08496 -7.41602 3.05664c-2.01465 1.97949 -3.16895 4.69727 -3.16895 7.52832
c-0.0869141 30.4453 -6.93848 59.918 -20.4326 87.6357c-2.54492 5.27148 -0.365234 11.6104 4.87988 14.1807l20.7275 10.1084c-13.3984 24.583 -31.2695 46.8652 -52.4316 65.293l-14.2588 -18.0107c-3.62988 -4.61035 -10.3076 -5.33984 -14.8926 -1.70996
c-23.8799 18.9473 -51.0166 31.9551 -80.6455 38.6162c-5.70508 1.29395 -9.29199 6.95508 -8.02344 12.6777l4.99316 22.4219c-27.415 4.85352 -56.2705 4.74121 -83.6592 -0.269531l5.17578 -22.4131c0.633789 -2.74316 0.147461 -5.62695 -1.3291 -7.99707
c-1.50195 -2.39648 -3.88184 -4.09863 -6.6084 -4.72363c-29.3076 -6.75684 -57.1299 -20.2422 -80.4717 -39.0332c-4.56738 -3.62207 -11.2363 -2.93555 -14.8838 1.63184l-14.3545 17.8975c-21.0059 -18.54 -38.7637 -40.9355 -52.041 -65.6406l20.7891 -9.96875
c5.26172 -2.52637 7.47656 -8.875 4.94922 -14.1543c-13.208 -27.6055 -19.9033 -56.8525 -19.9033 -86.9326c0 -5.83496 -4.70605 -11.0371 -10.542 -11.0371l-22.8203 -0.0429688c1.31152 -28.3877 7.58105 -55.8105 18.7568 -81.7227l20.7109 10.0469
c2.52637 1.24219 5.46191 1.4248 8.11035 0.495117c2.63965 -0.919922 4.81055 -2.85645 6.03516 -5.41016c13.1299 -27.1367 32.4336 -51.3467 55.8096 -70.0078c2.21484 -1.71973 3.62988 -4.29004 3.94238 -7.08594
c0.313477 -2.7959 -0.50293 -5.58398 -2.24902 -7.79785l-14.2842 -17.9404c22.7334 -16.5078 48.498 -28.9082 75.4873 -36.3418l5.03613 22.4219c0.625977 2.75293 2.31934 5.14062 4.68945 6.65137c2.3623 1.48535 5.21875 1.97168 7.98926 1.37207
c30.124 -6.81641 59.3008 -6.81641 89.4424 0.0869141c2.67383 0.660156 5.63574 0.173828 7.98828 -1.35449c2.37109 -1.48535 4.06445 -3.87305 4.68066 -6.61719l5.13281 -22.4209c26.9629 7.45898 52.6924 19.9375 75.418 36.4629l-14.3281 17.9229
c-3.64746 4.58496 -2.88379 11.2539 1.67578 14.9102c23.2979 18.6787 42.5674 42.9404 55.6533 70.1211c2.56152 5.24414 8.86621 7.48535 14.1543 4.94043z" />
    <glyph glyph-name="uniF103" unicode="&#xf103;" 
d="M301.078 448c47.0205 0 85.2646 -38.3096 85.2646 -85.3965v-341.207c0 -47.0869 -38.2441 -85.3887 -85.2646 -85.3887h-90.1641c-47.0205 0 -85.2646 38.3018 -85.2646 85.3887v341.207c0 47.0869 38.2441 85.3965 85.2646 85.3965h90.1641zM366.113 21.3965v0
l-0.00878906 341.207c0 35.3047 -29.7803 65.126 -65.0264 65.126h-90.1641c-35.2471 0 -65.0273 -29.8213 -65.0273 -65.126v-341.207c0 -35.2969 29.7725 -65.126 65.0273 -65.126h90.1797c35.2393 0 65.0195 29.8291 65.0195 65.126zM256 24.2451
c11.1641 0 20.2295 -9.08984 20.2373 -20.2705c0 -11.1807 -9.08105 -20.2783 -20.2373 -20.2783s-20.2373 9.11426 -20.2373 20.2783c0 11.1807 9.08105 20.2705 20.2373 20.2705zM276.229 394.673c5.59082 0 10.1191 -4.52832 10.1191 -10.127
s-4.52832 -10.1357 -10.1191 -10.1357h-40.4668c-5.59863 0 -10.1191 4.53711 -10.1191 10.1357s4.52051 10.127 10.1191 10.127h40.4668z" />
    <glyph glyph-name="uniF101" unicode="&#xf101;" 
d="M360.854 325.476c4.82129 0 8.73926 -3.91797 8.73242 -8.76074v-245.057c0 -3.01465 -1.55762 -5.80273 -4.08203 -7.40918c-1.41504 -0.888672 -3.0293 -1.33691 -4.65723 -1.33691c-1.27344 0 -2.57422 0.277344 -3.76855 0.860352l-101.079 48.5088
l-101.079 -48.5088c-2.70215 -1.32227 -5.90137 -1.13086 -8.43262 0.476562c-2.53223 1.60645 -4.08203 4.39453 -4.08203 7.40918v245.057c0 4.84277 3.91113 8.76074 8.73926 8.76074h209.709zM352.115 85.5459v0l0.0078125 222.423h-87.3838v-140.024
c0 -4.83496 -3.9043 -8.74609 -8.73926 -8.74609c-4.82812 0 -8.73926 3.9043 -8.73926 8.74609v140.031h-87.376v-222.423l92.3467 44.3135c1.1875 0.576172 2.48145 0.860352 3.76855 0.860352s2.58105 -0.28418 3.76855 -0.860352zM355.181 41.1182
c3.66113 3.13574 9.16504 2.70898 12.3154 -0.967773c3.12891 -3.67578 2.70215 -9.20801 -0.974609 -12.3438l-104.854 -89.7021c-1.63477 -1.39355 -3.6543 -2.09766 -5.67383 -2.09766c-1.94824 0 -3.88965 0.640625 -5.51074 1.95605l-104.848 85.3281
c-3.75488 3.04395 -4.31641 8.56836 -1.27344 12.3086c3.04395 3.74707 8.56152 4.33105 12.2949 1.28711l54.3682 -44.2568c0.441406 0.0712891 0.832031 0.262695 1.28711 0.262695h86.502zM255.857 -43.8555l22.4912 19.2422h-46.1338zM302.966 448
c36.7344 0 66.6279 -29.9434 66.6133 -66.7344v-29.5371c0 -4.83594 -3.90332 -8.75391 -8.73828 -8.75391h-209.695c-4.82812 0 -8.73926 3.91113 -8.73926 8.75391v29.5371c0 36.791 29.8936 66.7344 66.6279 66.7344h93.9316zM352.115 360.475h-0.00683594v20.791
c0 27.1494 -22.043 49.2275 -49.1494 49.2275h-93.9248c-27.0996 0 -49.1494 -22.0859 -49.1494 -49.2275v-20.791h192.23z" />
    <glyph glyph-name="uniF11B" unicode="&#xf11b;" 
d="M370.812 -64h-229.639c-43.3311 0 -78.583 35.3164 -78.583 78.7129v354.582c0 43.3955 35.252 78.7051 78.583 78.7051h229.646c43.3232 0 78.583 -35.3096 78.583 -78.7051v-354.575c-0.0078125 -43.4033 -35.252 -78.7197 -78.5898 -78.7197zM141.174 430.24
c-33.5498 0 -60.8594 -27.3389 -60.8594 -60.9453v-354.575c0 -33.6143 27.3027 -60.9463 60.8594 -60.9463h229.646c33.542 0 60.8525 27.332 60.8525 60.9463v354.575c0 33.6064 -27.2959 60.9453 -60.8525 60.9453h-229.646zM247.131 0.639648
c0 5.91016 2.95508 8.86523 8.86523 8.86523s8.86523 -2.95508 8.86523 -8.86523s-2.95508 -8.86523 -8.86523 -8.86523s-8.86523 2.95508 -8.86523 8.86523zM255.996 -17.1133c-9.7666 0 -17.7305 7.96387 -17.7305 17.7529c0 9.78125 7.96387 17.752 17.7305 17.752
c9.76758 0 17.7305 -7.96387 17.7305 -17.752c0 -9.78906 -7.96289 -17.7529 -17.7305 -17.7529zM273.727 378.448h-35.4609c-4.89746 0 -8.86523 3.97461 -8.86523 8.87988s3.96777 8.87207 8.86523 8.87207h35.4609c4.90527 0 8.86523 -3.97461 8.86523 -8.87207
c-0.00683594 -4.90527 -3.97461 -8.87988 -8.86523 -8.87988z" />
    <glyph glyph-name="uniF115" unicode="&#xf115;" 
d="M428.471 320.707c5.03027 0 9.0791 -4.07031 9.0791 -9.09375v-151.154c0 -31.9648 -25.96 -57.9756 -57.873 -57.9756h-69.8486c0.370117 -0.998047 0.635742 -2.05371 0.635742 -3.18457v-99.6338c0 -5.02344 -4.07031 -9.08691 -9.0791 -9.08691
c-5.02344 0 -9.0791 4.04883 -9.0791 9.08691v99.6338c0 1.14551 0.265625 2.18652 0.634766 3.18457h-73.8965c0.376953 -0.998047 0.643555 -2.05371 0.643555 -3.18457v-154.212c0 -5.0166 -4.06348 -9.08691 -9.0791 -9.08691
c-5.0166 0 -9.0791 4.05566 -9.0791 9.08691v154.197c0 1.14551 0.265625 2.18652 0.642578 3.19141h-69.8555c-31.9141 0 -57.873 26.0039 -57.873 57.9688v151.169c0 5.02344 4.0625 9.09375 9.0791 9.08691h54.4668v91.1904c0 19.916 16.1719 36.1094 36.0361 36.1094
c20.4111 0 36.583 -16.1934 36.583 -36.1094v-91.1904h99.8555v91.1904c0 19.916 16.1787 36.1094 36.0361 36.1094c20.4111 0 36.582 -16.1934 36.582 -36.1094v-91.1836h45.3887zM328.614 411.891v-91.1904h36.3018v91.1904c0 9.87695 -8.02246 17.9219 -17.877 17.9219
c-10.4014 0 -18.4248 -8.04492 -18.4248 -17.9219zM156.147 411.891v-91.1904h36.3096v91.1904c0 9.87695 -8.02246 17.9219 -17.8779 17.9219c-10.4082 0 -18.4316 -8.04492 -18.4316 -17.9219zM419.392 160.444h-0.0078125v142.075h-326.782v-142.075
c0 -21.9404 17.8184 -39.7881 39.7148 -39.7881h247.367c21.8965 0 39.708 17.8477 39.708 39.7881z" />
    <glyph glyph-name="uniF119" unicode="&#xf119;" 
d="M334.664 448c53.2285 0 96.542 -43.374 96.542 -96.6953v-318.602c0 -53.3291 -43.3135 -96.7031 -96.542 -96.7031h-157.328c-53.2363 0 -96.5342 43.374 -96.5342 96.7031v318.602c0 53.3213 43.2979 96.6953 96.5342 96.6953h157.328zM412.377 32.7031v318.602
c0 42.9062 -34.875 77.8359 -77.7129 77.8359h-157.328c-42.8447 0 -77.7051 -34.9219 -77.7051 -77.8359v-318.602c0 -42.9141 34.8604 -77.8438 77.7051 -77.8438h157.328c42.8379 0 77.7129 34.9141 77.7129 77.8438zM255.992 16.9932
c10.3916 0 18.8369 -8.46777 18.8369 -18.8672c0 -10.3984 -8.45312 -18.8594 -18.8369 -18.8594c-10.376 0 -18.8281 8.47559 -18.8281 18.8594c0 10.4072 8.45215 18.8672 18.8281 18.8672zM274.821 399.507c5.21094 0 9.42578 -4.22266 9.41797 -9.42578
c0 -5.21094 -4.20703 -9.43359 -9.41797 -9.43359h-37.665c-5.21094 0 -9.41895 4.21484 -9.41895 9.43359c0 5.20312 4.20801 9.42578 9.41895 9.42578h37.665z" />
    <glyph glyph-name="uniF102" unicode="&#xf102;" 
d="M497.05 -45.2646c2.71191 -1.84668 4.50098 -4.9668 4.50879 -8.51074c0 -5.64062 -4.58398 -10.2246 -10.2246 -10.2246c-0.124023 0.0253906 -0.257812 0.0078125 -0.407227 0h-419.653c-33.5439 0 -60.832 27.3301 -60.832 60.9326v376.184
c0 41.29 33.5352 74.8838 74.7588 74.8838h37.6875c5.64844 0 10.2246 -4.57617 10.2246 -10.2412v-378.88h20.4492v378.88c0 5.65723 4.57617 10.2412 10.2246 10.2412h254.936c45.4414 0 82.4209 -37.0381 82.4043 -82.5625v-316.8
c0 -0.182617 -0.0996094 -0.349609 -0.107422 -0.540039c-0.0585938 -0.990234 -0.233398 -1.95508 -0.574219 -2.89551c-0.0751953 -0.224609 -0.116211 -0.491211 -0.216797 -0.707031c-0.432617 -0.973633 -0.981445 -1.88867 -1.71387 -2.7041l-6.35547 -7.07129
c-19.0938 -21.2568 -19.0938 -53.3115 0 -74.5684zM296.683 427.518h-81.7812v-162.039l32.7461 43.2861c1.92188 2.55371 4.94141 4.05957 8.14453 4.05957c3.19434 0 6.21484 -1.49707 8.14453 -4.05957l32.7461 -43.2861v162.039zM174.011 427.518v-368.639h306.675
v306.559c0 34.2266 -27.8037 62.0801 -61.9639 62.0801h-101.599v-192.514c0 -4.39258 -2.79492 -8.31152 -6.95508 -9.70898c-1.07227 -0.349609 -2.17969 -0.524414 -3.25293 -0.524414c-3.12793 0 -6.17285 1.44727 -8.14453 4.05176l-42.9697 56.8057l-42.9707 -56.8057
c-2.64551 -3.51953 -7.24609 -4.9248 -11.3975 -3.52734c-4.16797 1.39746 -6.97168 5.31641 -6.97168 9.70898v192.514h-20.4502zM85.2002 427.518c-29.9502 0 -54.3096 -24.4014 -54.3096 -54.4014v-329.836c10.749 9.7002 24.875 15.5986 40.3828 15.5986h41.3975
v368.639h-27.4707zM71.2734 -43.5176h398.064c-4.11035 6.43945 -7.11328 13.3613 -9.11035 20.4824h-306.674c-5.65723 0 -10.2246 4.56836 -10.2246 10.2256s4.5752 10.2324 10.2246 10.2324h303.829c0 14.252 3.99316 28.4863 11.9629 40.9658h-398.072
c-22.2627 0 -40.3828 -18.1367 -40.3828 -40.4414c0 -23.3115 18.1201 -41.4648 40.3828 -41.4648z" />
    <glyph glyph-name="uniF106" unicode="&#xf106;" 
d="M389.123 313.771c43.2227 -14.3047 71.6338 -54.7188 71.6416 -103.408c0 -58.9785 -52.4102 -108.811 -114.451 -108.811c-1.94434 0 -49.5537 0.214844 -70.5547 0.325195v-52.2588c0 -5.39453 -4.36328 -9.7666 -9.75 -9.7666
c-5.3877 0 -9.75098 4.36426 -9.75098 9.7666v62.0654c0 2.60254 1.03906 5.10938 2.87207 6.92578c1.8252 1.80859 4.16504 3.20508 6.91797 2.84082c0 0 77.7666 -0.380859 80.2412 -0.380859c50.5938 0 94.9668 41.707 94.9668 89.2773
c0 42.7783 -26.3955 77.7188 -65.6836 86.9688c-4.7041 1.11133 -7.89355 5.49805 -7.47363 10.3223c0.174805 2.03027 0.634766 4.06934 1.12695 6.13281c0.333008 1.35645 0.673828 2.74512 0.673828 3.5459c0 61.2793 -49.4736 111.135 -110.294 111.135
c-61.0098 0 -110.635 -49.8555 -110.635 -111.15c0 -2.67383 0.230469 -5.32324 0.444336 -7.93359c0.412109 -4.91895 -2.81641 -10.5918 -7.65625 -11.5996c-41.1602 -8.46484 -71.0225 -45.2617 -71.0225 -87.4844c0 -50.0303 38.4785 -89.2139 87.6045 -89.2139
c2.48242 0 68.6104 0.380859 68.6104 0.380859c2.5625 0.364258 5.10059 -1.02344 6.93359 -2.84082c1.84082 -1.81641 2.87988 -4.32422 2.87988 -6.92578v-104.693h15.8037c10.251 0 16.6533 -11.123 11.5283 -20l-25.5547 -44.334
c-5.125 -8.87793 -17.9297 -8.87793 -23.0557 0l-25.5537 44.334c-5.12598 8.90137 1.27734 20 11.5273 20h15.8037v94.8867c-18.541 -0.126953 -57.0352 -0.325195 -58.9229 -0.325195c-60.0586 0 -107.105 47.7686 -107.105 108.747
c0 48.5625 32.4414 91.2451 78.2744 104.55c-0.0322266 0.841797 -0.0478516 1.64258 -0.0478516 2.46777c0 72.0537 58.3916 130.684 130.144 130.684c71.5547 0 129.779 -58.6143 129.779 -130.668c0 -1.2373 -0.0947266 -2.43555 -0.261719 -3.56152z" />
    <glyph glyph-name="uniF116" unicode="&#xf116;" 
d="M402.323 246.777c30.1309 0 54.6572 -24.54 54.6572 -54.7275s-24.5264 -54.7354 -54.6504 -54.7354c-22.9873 0 -41.2539 21.9268 -42.0156 22.874c-1.31055 1.5957 -2.84863 2.90527 -4.20215 3.88184c-0.0283203 -0.271484 -0.0419922 -0.563477 -0.0419922 -0.869141
v-101.929c0 -11.0381 -8.97363 -20.0254 -19.9971 -20.0254h-101.715c-1.55273 0 -2.59277 -0.569336 -2.82031 -0.833008c0.363281 -0.348633 2.53516 -4.96387 5.8252 -7.70508c0.925781 -0.762695 22.6602 -19.0283 22.6602 -41.9883
c0 -30.1875 -24.5264 -54.7275 -54.6494 -54.7275c-30.1377 0 -54.6494 24.5547 -54.6494 54.7275c0 23.1309 22.0908 41.4609 23.0303 42.2227c3.00488 2.46387 5.09863 6.52344 5.44043 8.30371c-0.249023 -0.348633 -1.1748 0.0146484 -2.44922 0h-101.723
c-11.0234 0 -19.9893 8.98047 -19.9893 20.0254v101.9c0 11.0449 8.96582 20.0176 19.9893 20.0176c9.44336 0 20.2539 -5.12012 25.8086 -11.9062c3.77441 -4.56543 16.3223 -16.4648 28.5 -16.4648c20.4805 0 37.1523 16.6924 37.1523 37.209
c0 20.5098 -16.6719 37.2021 -37.1523 37.2021c-14.5781 0 -28.3721 -16.3145 -28.5068 -16.4648c-5.54785 -6.7793 -16.3584 -11.8994 -25.1318 -11.8994c-11.6865 0 -20.6523 8.97266 -20.6523 20.0186v101.899c0 11.0381 8.96582 20.0117 19.9902 20.0117h101.522
c1.55957 0 2.59961 0.583984 2.83398 0.839844c-0.391602 0.270508 -2.56348 4.84277 -5.8252 7.51367c-0.939453 0.768555 -22.8525 19.0918 -22.8525 42.1152c0 30.1875 24.5195 54.7354 54.6494 54.7354c30.1309 0 54.6572 -24.5479 54.6504 -54.7275
c0 -23.0234 -21.9131 -41.3477 -22.8457 -42.1162c-3.02637 -2.48535 -5.12012 -6.57324 -5.45508 -8.35352c0.227539 0.363281 1.16113 0 2.45703 0h101.899c11.0244 0 19.9971 -8.97266 19.9971 -20.0107v-101.9c0 -0.328125 0.0283203 -0.640625 0.0429688 -0.912109
c1.30273 0.961914 2.86328 2.29395 4.1875 3.9248c0.776367 0.939453 19.0352 22.873 42.0303 22.873zM402.323 154.841c20.4883 0 37.1377 16.6924 37.1592 37.1943c0 20.5098 -16.6641 37.2031 -37.1377 37.2031c-14.5918 0 -28.3721 -16.3154 -28.5137 -16.4648
c-4.68652 -5.74023 -13.0039 -11.9004 -20.1963 -11.9004c-8.58203 0 -15.0479 8.61035 -15.0479 20.0186v101.9c0 1.35254 -1.16113 2.47754 -2.50684 2.47754h-101.9c-11.0234 0 -19.9961 7.69141 -19.9961 17.1562c0 8.21094 5.98145 17.4395 11.8926 22.2891
c4.55762 3.78223 16.4434 16.3516 16.4434 28.5576c0 20.5088 -16.6641 37.2021 -37.1455 37.2021c-20.4883 0 -37.1523 -16.6934 -37.1523 -37.2021c0 -12.2061 11.8926 -24.7754 16.4717 -28.5713c5.88281 -4.83594 11.8643 -14.0439 11.8643 -22.2754
c0 -9.46484 -8.96582 -17.1562 -19.9971 -17.1562h-101.537c-1.35254 0 -2.48535 -1.13184 -2.48535 -2.47754v-101.872c0 -1.36035 1.13965 -2.48535 2.48535 -2.48535c4.25879 0 10.0127 2.71289 12.2773 5.49023c0.769531 0.94043 19.0361 22.874 42.0312 22.874
c30.1377 0 54.6494 -24.5469 54.6494 -54.7344c0 -30.1953 -24.5195 -54.7354 -54.6494 -54.7354c-22.9951 0 -41.2617 21.9268 -42.0234 22.874c-2.27246 2.7627 -8.02637 5.49023 -11.6152 5.49023c-2.01562 0 -3.14746 -1.14648 -3.14746 -2.49219v-101.929
c0 -1.36719 1.13965 -2.50684 2.48535 -2.50684h101.708c11.2227 0 20.0039 -7.52734 20.0039 -17.1338c0 -8.21094 -6.00391 -17.4258 -11.9219 -22.2686c-4.60742 -3.82422 -16.6064 -16.3936 -16.6064 -28.6426c0 -20.5098 16.6641 -37.2021 37.1523 -37.2021
c20.4805 0 37.1445 16.6924 37.1445 37.2021c0 12.1562 -11.7783 24.6904 -16.3291 28.4932c-5.86035 4.88477 -11.8145 14.1211 -11.8145 22.3535c0 9.65723 8.78125 17.2197 19.9902 17.2197h101.707c1.36035 0 2.5 1.14648 2.5 2.5v101.899
c0 11.4014 6.48047 20.0117 15.0615 20.0117c7.17871 0 15.5107 -6.15332 20.1963 -11.8926c3.77441 -4.56543 16.3301 -16.4648 28.5 -16.4648z" />
    <glyph glyph-name="uniF11E" unicode="&#xf11e;" 
d="M348.878 307.534c9.61914 0 18.04 -6.10547 20.9912 -15.2207c2.95801 -9.05664 -0.270508 -18.9609 -8.02734 -24.5996l-45.0342 -32.582l17.3174 -52.8496c2.99414 -9.12988 -0.211914 -19.0625 -7.99805 -24.708
c-3.73926 -2.73926 -8.2168 -4.19238 -12.9277 -4.19238c-4.65234 0 -9.13672 1.45312 -12.9424 4.22852l-44.8594 32.8301l-44.8447 -32.8086c-7.63965 -5.59473 -18.3838 -5.56543 -25.9209 -0.0214844c-7.73535 5.60938 -10.9414 15.5059 -7.97656 24.6572
l17.332 52.8643l-45.0273 32.5674c-7.77148 5.60254 -10.9922 15.5059 -8.04883 24.6357c2.95801 9.09375 11.3643 15.1992 20.9248 15.1992l55.582 -0.124023l17.04 52.9961c2.9209 9.12988 11.3428 15.2725 20.9248 15.2725c9.56836 0 17.9814 -6.14258 20.9248 -15.2949
l17.0254 -52.9736zM351.303 282.293c1.41016 1.0293 2.01562 2.81836 1.47559 4.46191c-0.540039 1.69434 -2.06738 2.79785 -3.83496 2.79785l-62.125 -0.146484h-0.0146484c-3.88574 0 -7.34766 2.5127 -8.5459 6.2373l-19.0186 59.2188
c-1.0957 3.38965 -6.63184 3.375 -7.71973 0.0224609l-19.0264 -59.2412c-1.19824 -3.72461 -4.65234 -6.2373 -8.53809 -6.2373h-0.0224609l-62.0889 0.146484c-1.80371 0 -3.33008 -1.0957 -3.87109 -2.79785c-0.540039 -1.64355 0.0585938 -3.4541 1.49023 -4.49121
l50.3447 -36.4092c3.15527 -2.28613 4.48438 -6.37695 3.26465 -10.1016l-19.3691 -59.0947c-0.526367 -1.66504 0.0507812 -3.49121 1.46777 -4.50586c2.21289 -1.62891 3.59375 -0.862305 4.80566 0l50.1113 36.6719c1.57715 1.1543 3.43945 1.73828 5.29492 1.73828
s3.70996 -0.583984 5.29492 -1.73828l50.126 -36.6943c1.75293 -1.25586 3.03809 -1.24121 4.74707 -0.0146484c1.4541 1.05176 2.02344 2.87793 1.49023 4.55078l-19.3623 59.0947c-1.21191 3.72461 0.109375 7.82227 3.27246 10.1006zM256.011 448
c108.132 0 196.091 -88.1055 196.076 -196.42c0 -71.4453 -38.3076 -136.609 -100.339 -171.419v-135.17c0 -3.41113 -1.94238 -6.56641 -5.02441 -8.07812c-1.25684 -0.598633 -2.59277 -0.898438 -3.95117 -0.898438c-1.9502 0 -3.89355 0.62793 -5.49316 1.87695
l-80.5156 62.418l-80.4219 -62.418c-2.73926 -2.10352 -6.41992 -2.46094 -9.45117 -0.978516c-3.0752 1.51172 -5.02539 4.65234 -5.02539 8.07812v134.271c-63.0381 34.5547 -101.952 100.076 -101.952 172.311c0 108.321 87.9658 196.427 196.098 196.427z
M338.536 93.4473c58.9854 30.9307 95.6201 91.5303 95.6201 158.126c0 98.3955 -79.917 178.445 -178.152 178.445s-178.146 -80.0498 -178.146 -178.445c0 -67.29 37.1973 -128.188 97.0518 -158.886c2.99414 -1.55566 4.88672 -4.64551 4.88672 -8.0127v-121.344
l71.4521 55.4785c1.62891 1.24219 3.5498 1.87695 5.5 1.87695s3.86328 -0.634766 5.48438 -1.87695l71.5557 -55.4785v121.381c-0.0517578 0.701172 -0.0371094 1.39453 0.0722656 2.10352c0.438477 2.81934 2.14062 5.29492 4.6748 6.63184z" />
    <glyph glyph-name="uniF100" unicode="&#xf100;" 
d="M256 80.8418c98.6211 0 203.413 -25.3906 203.413 -72.4287c0 -47.0234 -104.8 -72.4131 -203.413 -72.4131c-98.6211 0 -203.42 25.3896 -203.42 72.4131c0 47.0381 104.799 72.4287 203.42 72.4287zM256 60.9785c-15.5596 0 -30.2119 -0.615234 -44.0693 -1.66504
c0.0908203 -0.487305 0.292969 -0.9375 0.292969 -1.45508c0 -20.4482 16.6387 -37.1104 37.0498 -37.1104s37.0508 16.6475 37.0508 37.1104c0 0.810547 0.269531 1.51465 0.457031 2.27246c-9.90527 0.495117 -20.0732 0.847656 -30.7812 0.847656zM256 -44.1367
c113.738 0 183.587 30.6094 183.571 52.5498c0 18.5967 -50.3818 43.3867 -135.025 50.5107c0.0449219 -0.368164 0.209961 -0.69043 0.209961 -1.08008c0 -30.6387 -24.8877 -55.5713 -55.4824 -55.5713c-30.5186 0 -55.3389 24.8271 -55.4658 55.3613
c-76.4102 -8.48828 -121.387 -31.6289 -121.387 -49.2207c0 -21.9404 69.834 -52.5498 183.579 -52.5498zM493.531 38.4678c3.18652 -3.97461 2.55664 -9.79297 -1.37988 -12.9727c-1.7168 -1.35742 -3.74902 -2.03223 -5.78125 -2.03223
c-2.67676 0 -5.36133 1.16992 -7.18359 3.44141l-60.4609 75.293c-21.7832 27.1221 -30.9385 62.3428 -25.1279 96.6484l1.77734 10.5205c6.16406 36.4658 -3.93652 73.6211 -27.7822 101.883c-23.8604 28.2695 -58.6826 44.4736 -95.6357 44.4736h-31.8838
c-36.96 0 -71.791 -16.2041 -95.6436 -44.4736c-23.8457 -28.2617 -33.9541 -65.417 -27.79 -101.883l1.78516 -10.5205c5.80371 -34.3203 -3.36719 -69.5332 -25.1279 -96.6484l-60.4688 -75.293c-3.20117 -3.98926 -8.99023 -4.58887 -12.957 -1.40918
s-4.59668 9.00586 -1.41016 12.9727l60.4609 75.292c18.4844 22.9912 26.2373 52.873 21.3115 81.9668l-1.78516 10.5283c-7.07812 41.8564 4.55176 84.4561 31.8916 116.88c20.7334 24.6025 48.7549 41.2188 79.5742 47.8252v31.2539
c0 25.2549 20.5156 45.7861 45.7188 45.7861c25.9297 0 46.4385 -20.5312 46.4385 -45.7861v-31.2539c30.8184 -6.60645 58.833 -23.2227 79.582 -47.8252c27.3545 -32.4238 38.9697 -75.0234 31.8838 -116.88l-1.77734 -10.5283
c-4.92676 -29.0938 2.82715 -58.9834 21.3105 -81.9668zM283.647 374.162v28.0439c0 15.0723 -12.2451 27.333 -27.2871 27.333c-15.7627 0 -28 -12.2607 -28 -27.333v-28.0439h55.2871z" />
    <glyph glyph-name="uniF10C" unicode="&#xf10c;" 
d="M501.506 398.497c13.9756 -8.07324 13.9756 -28.2393 0 -36.3252l-69.6064 -40.2686c-13.9766 -8.08691 -31.4209 2.02148 -31.4209 18.1689v24.8945h-178.944c-5.87793 0 -10.6572 -4.7793 -10.6572 -10.6689v-311.854c0 -8.47363 -6.85059 -15.3486 -15.3359 -15.3486
c-8.47363 0 -15.3369 6.85059 -15.3369 15.3486v311.867c0 22.8232 18.5439 41.3916 41.3301 41.3916h178.944v24.8945c0 16.1475 17.4697 26.2305 31.4209 18.1562zM444.678 226.578c8.47266 0 15.3232 -6.86328 15.3232 -15.3486v-212.699
c0 -30.9346 -25.0938 -56.1162 -56.0039 -56.1162h-347.993c-30.8721 0 -56.0039 25.1816 -56.0039 56.1162v348.567c0 30.9346 25.1318 56.0918 56.0039 56.0791h54.3203c8.47266 0 15.3359 -6.86328 15.3359 -15.3486s-6.86328 -15.3486 -15.3359 -15.3486h-54.3203
c-13.9756 0 -25.3311 -11.3936 -25.3311 -25.3818v-348.555c0 -14.0137 11.3555 -25.3936 25.3311 -25.3936h347.993c13.9766 0 25.3438 11.3799 25.3438 25.3936v212.687c0 8.48535 6.86328 15.3486 15.3369 15.3486z" />
    <glyph glyph-name="uniF10F" unicode="&#xf10f;" 
d="M500.594 223.606c5.87598 0 10.6191 -4.76855 10.6445 -10.6543v-226.358c0 -27.9102 -22.666 -50.6025 -50.5244 -50.6025h-409.436c-27.8506 0 -50.5078 22.6924 -50.5078 50.6025v303.592c0 27.8936 22.6572 50.5938 50.5078 50.6025h413.468l-88.873 89.0283
c-4.14551 4.16309 -4.14551 10.9053 0 15.0684c4.1543 4.15332 10.8877 4.15332 15.042 0l113.079 -113.288c4.14551 -4.16211 4.14551 -10.9043 0 -15.0586l-174.102 -174.405l105.308 -105.489c4.14551 -4.14551 4.14551 -10.9053 0 -15.0508
c-2.06836 -2.07715 -4.80371 -3.11523 -7.5127 -3.11523c-2.70801 0 -5.44336 1.03809 -7.52051 3.11523l-105.316 105.481l-51.3389 -51.4082c-2.07715 -2.08594 -4.80273 -3.12402 -7.52051 -3.12402c-2.70898 0 -5.44336 1.03809 -7.51172 3.12402l-48.6123 48.6904
l-102.591 -102.755c-2.07715 -2.07715 -4.80273 -3.11523 -7.52051 -3.11523s-5.44336 1.03809 -7.51172 3.11523c-4.1543 4.14551 -4.1543 10.9043 0 15.0498l102.59 102.755l-104.295 104.46c-4.1543 4.16309 -4.1543 10.9053 0 15.0674
c4.14551 4.1543 10.8867 4.1543 15.0322 0l111.808 -111.989l0.00878906 -0.0078125v-0.00878906l48.6035 -48.6816l220.88 221.234h-425.593c-16.124 0 -29.2441 -13.1455 -29.2441 -29.2949v-303.583c0 -16.1494 13.1201 -29.3037 29.2441 -29.3037h409.436
c16.123 0 29.2432 13.1543 29.2432 29.3037v226.35c0 5.88574 4.75098 10.6543 10.6367 10.6543z" />
    <glyph glyph-name="uniF120" unicode="&#xf120;" 
d="M44.8721 336.689c-6.14941 0 -11.1143 4.98242 -11.1143 11.1406c0 6.14941 4.96484 11.123 11.1143 11.123h133.34v22.2637c0 36.833 29.9141 66.7832 66.6738 66.7832h22.2285c36.7598 0 66.665 -29.9502 66.665 -66.7832v-22.2725h133.349
c6.13184 0 11.1143 -4.97363 11.1143 -11.123s-4.97363 -11.1318 -11.1143 -11.1318h-422.256zM200.439 381.217v-22.2637h111.13v22.2637c0 24.5518 -19.9395 44.5195 -44.4551 44.5195h-22.2285c-24.5156 0 -44.4463 -19.9678 -44.4463 -44.5195zM467.128 292.179
c6.13184 0 11.0967 -4.98242 11.123 -11.1406c0 -6.14062 -4.96387 -11.123 -11.1133 -11.123h-44.4561v-270.84c0 -34.7881 -28.2412 -63.084 -62.9668 -63.084h-207.421c-34.7344 0 -62.9756 28.2959 -62.9756 63.084v270.84h-44.4463
c-6.14941 0 -11.1143 4.97363 -11.1143 11.123c0 6.1582 4.96484 11.1406 11.1143 11.1406h422.256zM400.454 -0.942383v270.849h-288.917v-270.849c0 -22.5176 18.2764 -40.8115 40.748 -40.8115h207.421c22.4717 0 40.748 18.3125 40.748 40.8115zM189.316 13.9062
c-6.14062 0 -11.1045 4.98242 -11.1143 11.1406v178.085c0 6.14062 4.97363 11.123 11.1143 11.123s11.1143 -4.97363 11.1143 -11.123v-178.094c0 -6.14941 -4.96484 -11.1318 -11.1143 -11.1318zM255.991 13.9062c-6.14062 0 -11.1055 4.98242 -11.1143 11.1406v178.085
c0 6.14062 4.97363 11.123 11.1143 11.123c6.13965 0 11.1133 -4.97363 11.1133 -11.123v-178.094c0 -6.14941 -4.96387 -11.1318 -11.1133 -11.1318zM322.665 13.9062c-6.13965 0 -11.0957 4.98242 -11.1133 11.1406v178.085c0 6.14062 4.95508 11.123 11.1133 11.123
c6.14062 0 11.1143 -4.97363 11.1143 -11.123v-178.094c0 -6.14941 -4.97363 -11.1318 -11.1143 -11.1318z" />
    <glyph glyph-name="uniF122" unicode="&#xf122;" 
d="M505.514 31.4404c8.55664 -17.3525 8.66113 -39.8135 0.208008 -53.376c-10.3232 -16.6016 -26.3838 -26.4883 -42.9951 -26.4883h-413.482c-16.6582 0 -32.7275 9.91504 -43.0039 26.4883c-8.39648 13.5146 -8.30078 33.4023 0.227539 50.6592l22.8223 47.6875
c16.1367 32.6992 56.7188 53.0244 86.7881 55.5977c10.0391 0.845703 29.9834 4.50195 49.6816 9.07031c14.3125 3.33398 22.6035 6.00293 27.2578 7.78809c-1.13965 4.29297 -3.26758 8.49121 -6.33496 12.6035c-34.9512 27.5234 -55.7783 73.3867 -55.7783 123.087
c0 81.5547 56.3008 147.904 125.48 147.904s125.48 -66.3398 125.48 -147.895c0 -49.6719 -20.8184 -95.5635 -55.7979 -123.068c-3.10547 -4.26465 -5.15723 -8.36719 -6.26758 -12.4609c4.54883 -1.69043 12.7549 -4.29297 26.8682 -7.60742
c17.5889 -4.14062 38.2939 -7.79785 49.2256 -8.7373c31.0088 -2.7168 70.7461 -22.3955 86.7119 -54.791zM485.892 -9.61719c3.64648 5.85059 3.98828 19.916 -1.31055 30.6768l-22.9082 46.4619c-11.5869 23.5059 -43.5654 39.7373 -67.793 41.8555
c-11.9004 1.03516 -34.0107 4.91016 -52.54 9.25c-33.8398 7.94043 -39.8613 13.1543 -41.8457 14.8828c-2.63086 2.24121 -4.10352 5.59375 -4.03711 9.08887c0.275391 12.1855 4.67285 23.7627 13.1064 34.3906c0.598633 0.759766 1.33008 1.5293 2.09961 2.11816
c29.9736 22.9648 47.8672 62.3984 47.8672 105.44c0 68.6484 -45.7871 124.503 -102.127 124.503c-56.3291 0 -102.146 -55.8545 -102.146 -124.512c0 -43.0527 17.9033 -82.4766 47.8672 -105.498c0.874023 -0.636719 1.625 -1.38672 2.26074 -2.25098
c8.29102 -10.5234 12.6982 -22.1299 12.9551 -34.3428c0.0664062 -3.51465 -1.44434 -6.87695 -4.10352 -9.15625c-2.06055 -1.74707 -8.34766 -7.10352 -42.1777 -14.9961c-15.9463 -3.7041 -39.3867 -8.45312 -52.9961 -9.59277
c-24.0381 -2.08008 -55.9502 -18.5576 -67.7842 -42.5391l-22.8223 -47.6963c-4.84375 -9.83984 -5.42285 -21.6162 -1.38672 -28.1035c4.62598 -7.46484 13.1357 -15.4326 23.1738 -15.4326h413.482c9.99219 0 18.5391 7.99609 23.165 15.4521z" />
    <glyph glyph-name="uniF112" unicode="&#xf112;" 
d="M286.603 439.24c141.143 0 225.39 -80.959 225.397 -216.58c0 -5.64551 -4.5752 -10.2129 -10.2051 -10.2129h-215.192c-5.64648 0 -10.2051 4.55859 -10.2051 10.2129v206.366c0 5.63867 4.56738 10.2139 10.2051 10.2139zM296.808 232.882h194.608
c-3.89453 115.111 -74.1748 182.203 -194.608 185.773v-185.773zM441.869 191.688c5.64648 0 10.1963 -4.5752 10.1963 -10.2129c0 -141.583 -90.8311 -236.699 -226.012 -236.699c-126.761 0 -226.054 97.9316 -226.054 222.981c0 137.439 94.9746 229.799 236.325 229.799
c5.64648 0 10.2051 -4.56738 10.2051 -10.2139v-156.196c0 -2.79004 -1.1377 -5.47168 -3.17188 -7.40625c-2.01855 -1.93457 -4.63379 -3.15527 -7.54785 -2.79883c-0.307617 0 -2.11816 0.158203 -2.45801 0.224609c-25.9072 0 -46.5576 -20.7422 -46.5576 -46.2334
c0 -25.5254 20.7256 -46.3086 46.1924 -46.3086s46.1914 20.7832 46.1914 46.3086c0 1.46094 -0.223633 2.86426 -0.431641 4.27637c-0.40625 2.93066 0.407227 6.30176 2.33398 8.54395c1.94238 2.2334 4.69922 3.93555 7.65527 3.93555h153.133zM226.054 -34.7969
c121.638 0 201.351 80.4941 205.428 206.042h-131.992c-1.92578 -35.0986 -31.0215 -63.0645 -66.502 -63.0645c-36.7266 0 -66.6025 29.9424 -66.6025 66.752c0 34.4922 26.2227 62.9561 59.7432 66.3945v135.62c-123.506 -4.30957 -205.727 -87.2939 -205.727 -209.189
c0 -115.493 88.416 -202.555 205.652 -202.555z" />
    <glyph glyph-name="uniF109" unicode="&#xf109;" 
d="M501.15 448c5.76465 0 10.4248 -4.67773 10.417 -10.4414v-462.363c0 -21.6143 -17.5312 -39.1787 -39.1025 -39.1787h-461.607c-5.76367 0 -10.4326 4.66113 -10.4326 10.4424s4.66895 10.4414 10.4326 10.4414h51.2764l30.4766 64.4512
c-15.0684 10.79 -24.9424 28.4053 -24.9424 48.3467c0 32.7861 26.623 59.46 59.3408 59.46c20.4258 0 38.4648 -10.3828 49.1533 -26.1475l58.4404 26.0107c-1.12012 4.55957 -1.78223 9.30469 -1.78223 14.1943c0 32.7949 26.6309 59.4766 59.3652 59.4766
c4.88965 0 9.62695 -0.662109 14.1855 -1.7832l25.9609 58.5342c-15.7305 10.7051 -26.0967 28.7793 -26.0967 49.2295c0 32.7773 26.6309 59.4512 59.375 59.4512c19.084 0 36.0449 -9.10938 46.9033 -23.168l78.2031 40.8428v51.7598
c0 5.76367 4.65234 10.4414 10.4336 10.4414zM365.602 347.223c-21.2236 0 -38.499 -17.2842 -38.499 -38.5498s17.2754 -38.5664 38.499 -38.5664c21.2402 0 38.499 17.3008 38.499 38.5664c0 6.2998 -1.66406 12.1572 -4.34668 17.4121
c-0.0419922 0.110352 -0.144531 0.186523 -0.211914 0.305664c-0.0341797 0.0595703 -0.0166016 0.135742 -0.0595703 0.203125c-6.46875 12.208 -19.1436 20.6289 -33.8809 20.6289zM292.186 181.8c-21.2314 0 -38.5078 -17.3096 -38.5078 -38.5664
c0 -21.2744 17.2764 -38.5508 38.5078 -38.5508c21.2324 0 38.5078 17.2764 38.5078 38.5508c0 21.2568 -17.2754 38.5664 -38.5078 38.5664zM127.009 108.257c-21.2236 0 -38.4824 -17.3096 -38.4902 -38.5664c0 -15.3496 9.04883 -28.5078 22.0127 -34.7051
c0.0166016 0 0.0419922 0 0.0595703 -0.0166016c0.0332031 -0.0175781 0.0507812 -0.0507812 0.0849609 -0.0595703c4.97461 -2.36035 10.4756 -3.76953 16.333 -3.76953c21.2314 0 38.5078 17.2764 38.5078 38.5508c0 21.2568 -17.2764 38.5664 -38.5078 38.5664z
M472.465 -43.1074c10.0605 0 18.252 8.20898 18.252 18.2861v387.045l-68.457 -35.7656c1.75684 -5.62012 2.70801 -11.6045 2.70801 -17.793c0 -32.7949 -26.6318 -59.4678 -59.3662 -59.4678c-4.88965 0 -9.62695 0.662109 -14.1777 1.78223l-25.9688 -58.5342
c15.7314 -10.7129 26.0967 -28.7783 26.0967 -49.2373c0 -32.7607 -26.6309 -59.4424 -59.3662 -59.4424c-20.417 0 -38.4482 10.3818 -49.1445 26.1299l-58.4404 -25.9941c1.12012 -4.56738 1.78223 -9.30469 1.78223 -14.2109c0 -32.7773 -26.6309 -59.46 -59.374 -59.46
c-5.39062 0 -10.5859 0.797852 -15.5527 2.13965l-26.2402 -55.4775h387.249z" />
    <glyph glyph-name="uniF114" unicode="&#xf114;" 
d="M85.6074 228.764c11.752 0 21.2939 -9.55957 21.2939 -21.3291c0 -11.7686 -9.55078 -21.3369 -21.2939 -21.3369c-11.751 0 -21.3018 9.56836 -21.3018 21.3369c0 11.7607 9.55078 21.3291 21.3018 21.3291zM287.434 134.498
c9.68945 -5.59863 9.68945 -19.6211 0 -25.2021l-48.333 -27.9756c-9.70703 -5.61621 -21.8223 1.40332 -21.8223 12.6094v55.9248c0 11.2061 12.124 18.209 21.8223 12.6104zM511.566 352.001c0 -5.90137 -4.75781 -10.668 -10.6338 -10.668h-117.006
c0.0253906 -13.5283 0.0517578 -27.9238 0.0859375 -42.6738h116.92c5.87598 0 10.6514 -4.75879 10.6514 -10.6602v-341.339c0 -5.88477 -4.7666 -10.6602 -10.6514 -10.6602h-489.865c-5.89355 0 -10.6514 4.74902 -10.6514 10.6602v341.348
c0 5.89258 4.75781 10.6592 10.6514 10.6592h351.418v138.673c0 5.89355 4.7666 10.6602 10.6514 10.6602h127.787c5.88477 0 10.6426 -4.75781 10.6426 -10.6602v-85.3389zM384.29 117.035c0 -3.33691 -0.250977 -6.60449 -0.501953 -9.87207v-0.501953
c0 -0.0605469 -0.0351562 -0.113281 -0.0351562 -0.173828c-5.38184 -65.9346 -60.5703 -117.951 -127.762 -117.951c-70.7363 0 -128.29 57.6328 -128.29 128.49s57.5537 128.516 128.29 128.516c44.3115 0 83.4414 -22.6201 106.485 -56.9395v88.7275h-340.767v-320.002
h468.589v320.011h-106.251c0.112305 -78.3623 0.242188 -158.605 0.242188 -160.304zM361.991 117.035c0 58.542 -47.5439 106.173 -105.982 106.173s-105.991 -47.6221 -105.991 -106.173c0 -58.5342 47.5527 -106.165 105.991 -106.165s105.982 47.6309 105.982 106.165z
M490.273 362.661v64.0107h-106.485s0.0429688 -26.5547 0.103516 -64.0107h106.382z" />
    <glyph glyph-name="uniF108" unicode="&#xf108;" 
d="M509.99 408.774c4.06445 -9.83398 1.8291 -21.0557 -5.66016 -28.5723l-181.861 -182.159v-161.364c0 -6.12012 -4.93945 -11.0771 -11.0771 -11.0771c-6.12012 0 -11.0781 4.93848 -11.0781 11.0771v165.952c0 2.94727 1.17188 5.76855 3.24512 7.8418l185.079 185.412
c1.66699 1.65918 1.27051 3.46191 0.892578 4.38965c-0.397461 0.928711 -1.38867 2.48828 -3.73145 2.48828h-459.588c-2.36133 0 -3.34375 -1.54199 -3.74121 -2.48828c-0.37793 -0.918945 -0.774414 -2.72168 0.883789 -4.38965l185.105 -185.412
c2.07324 -2.07324 3.24512 -4.89453 3.24512 -7.8418v-232.516c0 -6.12891 -4.94824 -11.0771 -11.0771 -11.0771c-6.12012 0 -11.0771 4.93945 -11.0771 11.0771v227.919l-181.861 182.159c-7.51758 7.52539 -9.74316 18.7471 -5.67871 28.5811
c4.07422 9.8418 13.5654 16.1875 24.2012 16.1875h459.578c10.6357 0 20.127 -6.3457 24.2012 -16.1875z" />
    <glyph glyph-name="uniF105" unicode="&#xf105;" 
d="M355.992 314.428c6.14844 0 11.1133 -4.97363 11.1133 -11.123s-4.96484 -11.123 -11.1133 -11.123h-200.002c-6.14062 0 -11.1143 4.97363 -11.1143 11.123s4.96484 11.123 11.1143 11.123h200.002zM355.992 247.654c6.14844 0 11.1221 -4.97363 11.1133 -11.1133
c0 -6.14941 -4.96484 -11.1318 -11.1133 -11.1318h-200.002c-6.14062 0 -11.1143 4.98242 -11.1143 11.1318c0 6.13965 4.96484 11.1133 11.1143 11.1133h200.002zM355.992 180.873c6.14844 0 11.1221 -4.9834 11.1133 -11.1143
c0 -6.14941 -4.96484 -11.1318 -11.1133 -11.1318h-200.002c-6.14062 0 -11.1143 4.96484 -11.1143 11.1318c0 6.13086 4.96484 11.1143 11.1143 11.1143h200.002zM472.682 448c21.4492 0 38.875 -17.4795 38.8936 -38.957v-447.307
c0 -14.1973 -11.5479 -25.7363 -25.7002 -25.7363h-118.77c-6.13965 0 -11.1133 4.95508 -11.1133 11.123v33.377h-200.002v-33.377c0 -6.14062 -4.96484 -11.123 -11.1143 -11.123h-96.5322c-26.415 0 -47.9189 21.5312 -47.9189 48.0088v425.034
c0 21.4775 17.4531 38.957 38.8936 38.957h433.363zM355.992 2.7998v44.5088h-200.002v-44.5088h200.002zM489.339 -38.2461h0.00878906v447.289c0 9.20605 -7.4873 16.6934 -16.6572 16.6934h-433.372c-9.1875 0 -16.6748 -7.4873 -16.6748 -16.6934v-425.034
c0 -14.1973 11.5293 -25.7363 25.7002 -25.7363h85.4189v100.168c0 6.14941 4.97363 11.1143 11.1133 11.1143h222.221c6.14941 0 11.1133 -4.95605 11.1133 -11.1143v-100.168h107.647c1.90723 0 3.48145 1.57324 3.48145 3.48145z" />
    <glyph glyph-name="uniF10A" unicode="&#xf10a;" 
d="M464.401 191.609c4.21191 4.21191 11.0293 4.21191 15.2314 0c4.20312 -4.21094 4.20312 -11.0635 0 -15.2754l-200.518 -200.878c-5.50195 -5.49219 -12.7842 -8.52832 -20.5488 -8.52832c-7.77344 0 -15.0557 3.03613 -20.5488 8.52832l-200.526 200.878
c-4.20312 4.2207 -4.20312 11.0645 0 15.2754c4.20215 4.21191 11.0371 4.21191 15.2402 0l200.526 -200.878c2.81641 -2.81641 7.79199 -2.81641 10.6084 0zM366.45 417.055c80.2373 0 145.541 -65.4004 145.541 -145.787c0 -5.96582 -4.8252 -10.8008 -10.7832 -10.8008
c-5.96582 0 -10.7832 4.82617 -10.7832 10.8008c0 68.4629 -55.6084 124.186 -123.983 124.186c-40.1318 0 -77.9824 -19.6094 -101.207 -52.459c-2.18457 -3.10547 -5.71191 -4.50098 -9.23047 -4.36035c-3.51758 -0.140625 -7.04492 1.25488 -9.25586 4.36035
c-23.2158 32.8584 -61.0576 52.459 -101.198 52.459c-68.3662 0 -123.983 -55.7139 -123.983 -124.186c0 -5.96582 -4.82617 -10.8008 -10.7832 -10.8008c-5.95801 0 -10.7832 4.82617 -10.7832 10.8008c0 80.3867 65.3037 145.787 145.559 145.787
c42.5889 0 82.9219 -18.8555 110.454 -50.959c27.5156 32.1035 67.8486 50.959 110.438 50.959z" />
    <glyph glyph-name="uniF111" unicode="&#xf111;" 
d="M471.874 396.346c22.1572 0 40.126 -17.9971 40.1162 -40.2012v-328.271c0 -22.2031 -17.9688 -40.2012 -40.1348 -40.2012h-431.729c-22.1572 0 -40.126 17.998 -40.126 40.2012v328.271c0 22.2041 17.9688 40.2012 40.126 40.2012h431.748zM488.924 27.874v131.464
l-204.533 -102.492c-1.64355 -0.826172 -3.39941 -1.21973 -5.16406 -1.21973c-2.86328 0 -5.71777 1.07031 -7.88574 3.12598l-106.444 100.022l-141.829 -61.3613v-69.5391c0 -9.42578 7.65137 -17.0869 17.0586 -17.0869h431.748
c9.40723 0 17.0498 7.66113 17.0498 17.0869zM488.924 184.536v0l-0.00976562 171.608c0 9.41699 -7.63281 17.0869 -17.0586 17.0869h-431.729c-9.40723 0 -17.0586 -7.66992 -17.0586 -17.0869v-233.571l139.632 60.3955c4.1875 1.8584 9.09766 0.985352 12.458 -2.15918
l106.098 -99.7041l204.946 102.698c0.881836 0.441406 1.80273 0.535156 2.72266 0.732422zM312.715 265.727l69.0791 -60.7705c2.84473 -2.50684 4.28125 -6.25293 3.84863 -10.0176c-0.450195 -3.76465 -2.70312 -7.0791 -6.06445 -8.85352l-78.4395 -41.7686
c-1.68945 -0.919922 -3.55762 -1.37012 -5.40723 -1.37012c-2.81641 0 -5.61426 1.03223 -7.77344 3.02246l-67.8779 62.1699c-2.79785 2.54395 -4.1582 6.28027 -3.67969 10.0264c0.488281 3.73633 2.76953 6.99414 6.10254 8.75l77.2656 40.3789
c4.22461 2.20605 9.34082 1.5957 12.9463 -1.56738zM297.496 168.511l56.5273 30.127l-50.584 44.5098l-55.6641 -29.085zM417.075 326.422c23.9873 0 43.5332 -19.5557 43.543 -43.5996c0 -24.043 -19.5283 -43.6182 -43.543 -43.6182
c-24.0156 0 -43.5527 19.5654 -43.5527 43.6182c0 24.0439 19.5371 43.5996 43.5527 43.5996zM417.075 262.328c11.2939 0 20.457 9.19043 20.4756 20.5127c0 11.3037 -9.18164 20.4951 -20.4756 20.4951c-11.2852 0 -20.4766 -9.20117 -20.4766 -20.4951
c0 -11.3223 9.19141 -20.5127 20.4766 -20.5127z" />
    <glyph glyph-name="uniF107" unicode="&#xf107;" 
d="M336.296 357.515c6.33496 -1.27832 10.4473 -7.48047 9.15918 -13.8252c-1.28809 -6.36328 -7.58496 -10.4854 -13.8057 -9.1875c-35.6924 7.24121 -72.3389 -3.85449 -98.0225 -29.5957c-23.7764 -23.8135 -34.9385 -57.4648 -30.5879 -90.7617h17.9082
c12.3262 0 20.0264 -13.3574 13.8623 -24.0527l-30.7402 -53.3047c-6.1543 -10.6855 -21.5527 -10.6855 -27.7158 0l-30.7314 53.3047c-6.17285 10.6953 1.53613 24.0527 13.8535 24.0527h20.0166c-4.2168 39.499 9.35938 79.1123 37.5625 107.372
c31.2559 31.3037 75.8779 44.7568 119.241 35.998zM368.562 448c47.8379 0 86.7266 -38.9844 86.7266 -86.8887v-338.223c0 -47.8955 -38.8887 -86.8789 -86.7266 -86.8789h-181.333c-3.11035 0 -6.08691 1.24023 -8.28125 3.43457l-118.822 118.993
c-2.19434 2.18555 -3.4248 5.19043 -3.4248 8.30078v294.373c0 47.9043 38.917 86.8887 86.7549 86.8887h225.106zM178.5 -26.8955v0l0.00878906 50.8525c0 21.8486 -22.5635 41.0352 -48.2764 41.0352h-43.4775zM431.848 22.8887h0.0185547v338.223
c0 34.9678 -28.4033 63.4082 -63.3037 63.4082h-225.106c-34.9102 0 -63.3125 -28.4502 -63.3125 -63.4082v-272.639h50.0791c38.8887 0 71.7188 -29.5576 71.7188 -64.5156v-64.4766h166.621c34.8818 0 63.2852 28.4316 63.2852 63.4082z" />
  </font>
</defs>
</svg>
